<svg width="50" height="50" viewBox="0 0 50 50" fill="none" xmlns="http://www.w3.org/2000/svg">
<path d="M30.6396 11.7417L42.425 23.5271C42.8156 23.9178 43.035 24.4476 43.035 25C43.035 25.5524 42.8156 26.0822 42.425 26.4729L30.6396 38.2583C30.2467 38.6378 29.7204 38.8478 29.1742 38.8431C28.6279 38.8383 28.1054 38.6192 27.7191 38.233C27.3329 37.8467 27.1138 37.3242 27.109 36.7779C27.1043 36.2317 27.3143 35.7054 27.6938 35.3125L35.9229 27.0833H8.33333C7.7808 27.0833 7.25089 26.8638 6.86019 26.4731C6.46949 26.0824 6.25 25.5525 6.25 25C6.25 24.4475 6.46949 23.9176 6.86019 23.5269C7.25089 23.1362 7.7808 22.9167 8.33333 22.9167H35.9229L27.6938 14.6875C27.4948 14.4953 27.3361 14.2654 27.2269 14.0113C27.1177 13.7571 27.0602 13.4837 27.0578 13.2071C27.0554 12.9305 27.1081 12.6561 27.2129 12.4001C27.3176 12.1441 27.4723 11.9115 27.6679 11.7158C27.8635 11.5202 28.0961 11.3655 28.3522 11.2608C28.6082 11.156 28.8825 11.1033 29.1592 11.1057C29.4358 11.1081 29.7092 11.1656 29.9633 11.2748C30.2175 11.384 30.4474 11.5427 30.6396 11.7417Z" fill="white"/>
</svg>
