<svg width="40" height="36" viewBox="0 0 40 36" fill="none" xmlns="http://www.w3.org/2000/svg">
<g filter="url(#filter0_d_366_772)">
<path d="M20 0.615356C16.9572 0.615356 13.9827 1.51765 11.4527 3.20813C8.92276 4.89861 6.95087 7.30136 5.78645 10.1125C4.62202 12.9237 4.31736 16.017 4.91097 19.0014C5.50459 21.9857 6.96984 24.727 9.12141 26.8785C11.273 29.0301 14.0143 30.4953 16.9986 31.089C19.9829 31.6826 23.0762 31.3779 25.8874 30.2135C28.6986 29.0491 31.1013 27.0772 32.7918 24.5472C34.4823 22.0172 35.3846 19.0428 35.3846 16C35.3803 11.921 33.758 8.0104 30.8738 5.12616C27.9895 2.24192 24.0789 0.619664 20 0.615356ZM16.0991 21.9171H23.9009C23.1065 24.6301 21.7751 27.0754 20 29.0014C18.2248 27.0754 16.8935 24.6301 16.0991 21.9171ZM15.5621 19.5503C15.1696 17.1997 15.1696 14.8003 15.5621 12.4497H24.4378C24.8303 14.8003 24.8303 17.1997 24.4378 19.5503H15.5621ZM6.98223 16C6.9812 14.7994 7.14698 13.6046 7.47483 12.4497H13.1642C12.8111 14.8034 12.8111 17.1966 13.1642 19.5503H7.47483C7.14698 18.3954 6.9812 17.2005 6.98223 16ZM23.9009 10.0828H16.0991C16.8935 7.36979 18.2248 4.92453 20 2.99849C21.7751 4.92453 23.1065 7.36979 23.9009 10.0828ZM26.8358 12.4497H32.5251C33.1819 14.771 33.1819 17.229 32.5251 19.5503H26.8358C27.1888 17.1966 27.1888 14.8034 26.8358 12.4497ZM31.5932 10.0828H26.352C25.7481 7.70635 24.7339 5.45359 23.355 3.42601C25.1166 3.89941 26.7596 4.73625 28.1785 5.88271C29.5973 7.02917 30.7604 8.45987 31.5932 10.0828ZM16.6449 3.42601C15.2661 5.45359 14.2518 7.70635 13.6479 10.0828H8.40678C9.23951 8.45987 10.4027 7.02917 11.8215 5.88271C13.2403 4.73625 14.8833 3.89941 16.6449 3.42601ZM8.40678 21.9171H13.6479C14.2518 24.2936 15.2661 26.5464 16.6449 28.5739C14.8833 28.1005 13.2403 27.2637 11.8215 26.1172C10.4027 24.9708 9.23951 23.5401 8.40678 21.9171ZM23.355 28.5739C24.7339 26.5464 25.7481 24.2936 26.352 21.9171H31.5932C30.7604 23.5401 29.5973 24.9708 28.1785 26.1172C26.7596 27.2637 25.1166 28.1005 23.355 28.5739Z" fill="white"/>
</g>
<defs>
<filter id="filter0_d_366_772" x="0.615356" y="0.615356" width="38.7692" height="38.7693" filterUnits="userSpaceOnUse" color-interpolation-filters="sRGB">
<feFlood flood-opacity="0" result="BackgroundImageFix"/>
<feColorMatrix in="SourceAlpha" type="matrix" values="0 0 0 0 0 0 0 0 0 0 0 0 0 0 0 0 0 0 127 0" result="hardAlpha"/>
<feOffset dy="4"/>
<feGaussianBlur stdDeviation="2"/>
<feComposite in2="hardAlpha" operator="out"/>
<feColorMatrix type="matrix" values="0 0 0 0 0 0 0 0 0 0 0 0 0 0 0 0 0 0 0.25 0"/>
<feBlend mode="normal" in2="BackgroundImageFix" result="effect1_dropShadow_366_772"/>
<feBlend mode="normal" in="SourceGraphic" in2="effect1_dropShadow_366_772" result="shape"/>
</filter>
</defs>
</svg>
