<svg width="100" height="100" viewBox="0 0 100 100" fill="none" xmlns="http://www.w3.org/2000/svg">
<path d="M15.1496 47.0542C14.3685 47.8356 13.9297 48.8952 13.9297 50C13.9297 51.1049 14.3685 52.1645 15.1496 52.9458L38.7205 76.5167C39.5063 77.2757 40.5588 77.6957 41.6513 77.6862C42.7438 77.6767 43.7888 77.2385 44.5614 76.4659C45.3339 75.6934 45.7721 74.6483 45.7816 73.5559C45.7911 72.4634 45.3711 71.4109 44.6121 70.625L28.1538 54.1667H83.333C84.438 54.1667 85.4978 53.7277 86.2792 52.9463C87.0606 52.1649 87.4996 51.1051 87.4996 50C87.4996 48.8949 87.0606 47.8351 86.2792 47.0537C85.4978 46.2723 84.438 45.8334 83.333 45.8334H28.1538L44.6121 29.375C45.3711 28.5892 45.7911 27.5367 45.7816 26.4442C45.7721 25.3517 45.3339 24.3066 44.5614 23.5341C43.7888 22.7616 42.7438 22.3234 41.6513 22.3139C40.5588 22.3044 39.5063 22.7244 38.7205 23.4834L15.1496 47.0542Z" fill="white"/>
</svg>
