<svg width="100" height="100" viewBox="0 0 100 100" fill="none" xmlns="http://www.w3.org/2000/svg">
<path d="M15.1501 47.0542C14.369 47.8355 13.9302 48.8952 13.9302 50C13.9302 51.1049 14.369 52.1645 15.1501 52.9458L38.721 76.5167C39.5068 77.2757 40.5593 77.6956 41.6518 77.6861C42.7443 77.6767 43.7893 77.2384 44.5619 76.4659C45.3344 75.6934 45.7726 74.6483 45.7821 73.5558C45.7916 72.4633 45.3716 71.4108 44.6126 70.625L28.1543 54.1667H83.3335C84.4385 54.1667 85.4983 53.7277 86.2797 52.9463C87.0611 52.1649 87.5001 51.1051 87.5001 50C87.5001 48.8949 87.0611 47.8351 86.2797 47.0537C85.4983 46.2723 84.4385 45.8333 83.3335 45.8333H28.1543L44.6126 29.375C45.3716 28.5892 45.7916 27.5367 45.7821 26.4442C45.7726 25.3517 45.3344 24.3066 44.5619 23.5341C43.7893 22.7616 42.7443 22.3234 41.6518 22.3139C40.5593 22.3044 39.5068 22.7243 38.721 23.4833L15.1501 47.0542Z" fill="white"/>
</svg>
